<mxfile host="app.diagrams.net" agent="Mozilla/5.0 (X11; Linux x86_64; rv:128.0) Gecko/20100101 Firefox/128.0" version="26.0.11">
  <diagram id="C5RBs43oDa-KdzZeNtuy" name="Page-1">
    <mxGraphModel dx="1045" dy="569" grid="1" gridSize="10" guides="1" tooltips="1" connect="1" arrows="1" fold="1" page="1" pageScale="1" pageWidth="827" pageHeight="1169" background="#E6E6E6" math="0" shadow="0">
      <root>
        <mxCell id="WIyWlLk6GJQsqaUBKTNV-0" />
        <mxCell id="WIyWlLk6GJQsqaUBKTNV-1" parent="WIyWlLk6GJQsqaUBKTNV-0" />
        <mxCell id="PKIbUtqsOLjBf_A8yuhs-7" style="edgeStyle=orthogonalEdgeStyle;rounded=0;orthogonalLoop=1;jettySize=auto;html=1;exitX=0.5;exitY=1;exitDx=0;exitDy=0;entryX=0.5;entryY=0;entryDx=0;entryDy=0;" edge="1" parent="WIyWlLk6GJQsqaUBKTNV-1" source="PKIbUtqsOLjBf_A8yuhs-2" target="PKIbUtqsOLjBf_A8yuhs-3">
          <mxGeometry relative="1" as="geometry" />
        </mxCell>
        <mxCell id="PKIbUtqsOLjBf_A8yuhs-2" value="&lt;div&gt;Fetch login page&lt;/div&gt;" style="rounded=1;whiteSpace=wrap;html=1;" vertex="1" parent="WIyWlLk6GJQsqaUBKTNV-1">
          <mxGeometry x="90" y="130" width="80" height="40" as="geometry" />
        </mxCell>
        <mxCell id="PKIbUtqsOLjBf_A8yuhs-8" style="edgeStyle=orthogonalEdgeStyle;rounded=0;orthogonalLoop=1;jettySize=auto;html=1;exitX=0;exitY=0.5;exitDx=0;exitDy=0;entryX=0;entryY=0.5;entryDx=0;entryDy=0;" edge="1" parent="WIyWlLk6GJQsqaUBKTNV-1" source="PKIbUtqsOLjBf_A8yuhs-3" target="PKIbUtqsOLjBf_A8yuhs-2">
          <mxGeometry relative="1" as="geometry" />
        </mxCell>
        <mxCell id="PKIbUtqsOLjBf_A8yuhs-9" style="edgeStyle=orthogonalEdgeStyle;rounded=0;orthogonalLoop=1;jettySize=auto;html=1;exitX=0.5;exitY=1;exitDx=0;exitDy=0;entryX=0.5;entryY=0;entryDx=0;entryDy=0;" edge="1" parent="WIyWlLk6GJQsqaUBKTNV-1" source="PKIbUtqsOLjBf_A8yuhs-3">
          <mxGeometry relative="1" as="geometry">
            <mxPoint x="130" y="300" as="targetPoint" />
          </mxGeometry>
        </mxCell>
        <mxCell id="PKIbUtqsOLjBf_A8yuhs-3" value="Login Successful" style="rhombus;whiteSpace=wrap;html=1;" vertex="1" parent="WIyWlLk6GJQsqaUBKTNV-1">
          <mxGeometry x="90" y="200" width="80" height="70" as="geometry" />
        </mxCell>
        <mxCell id="PKIbUtqsOLjBf_A8yuhs-112" style="edgeStyle=orthogonalEdgeStyle;rounded=0;orthogonalLoop=1;jettySize=auto;html=1;exitX=1;exitY=0.5;exitDx=0;exitDy=0;entryX=0;entryY=0.5;entryDx=0;entryDy=0;" edge="1" parent="WIyWlLk6GJQsqaUBKTNV-1" source="PKIbUtqsOLjBf_A8yuhs-41" target="PKIbUtqsOLjBf_A8yuhs-53">
          <mxGeometry relative="1" as="geometry" />
        </mxCell>
        <mxCell id="PKIbUtqsOLjBf_A8yuhs-41" value="Fetch feed and posts" style="rounded=1;whiteSpace=wrap;html=1;" vertex="1" parent="WIyWlLk6GJQsqaUBKTNV-1">
          <mxGeometry x="90" y="300" width="80" height="40" as="geometry" />
        </mxCell>
        <mxCell id="PKIbUtqsOLjBf_A8yuhs-100" style="edgeStyle=orthogonalEdgeStyle;rounded=0;orthogonalLoop=1;jettySize=auto;html=1;exitX=0.5;exitY=1;exitDx=0;exitDy=0;entryX=0.5;entryY=0;entryDx=0;entryDy=0;" edge="1" parent="WIyWlLk6GJQsqaUBKTNV-1" source="PKIbUtqsOLjBf_A8yuhs-43" target="PKIbUtqsOLjBf_A8yuhs-48">
          <mxGeometry relative="1" as="geometry" />
        </mxCell>
        <mxCell id="PKIbUtqsOLjBf_A8yuhs-121" style="edgeStyle=orthogonalEdgeStyle;rounded=0;orthogonalLoop=1;jettySize=auto;html=1;exitX=0;exitY=0.5;exitDx=0;exitDy=0;entryX=0.75;entryY=1;entryDx=0;entryDy=0;" edge="1" parent="WIyWlLk6GJQsqaUBKTNV-1" source="PKIbUtqsOLjBf_A8yuhs-43" target="PKIbUtqsOLjBf_A8yuhs-41">
          <mxGeometry relative="1" as="geometry" />
        </mxCell>
        <mxCell id="PKIbUtqsOLjBf_A8yuhs-43" value="Create post" style="rhombus;whiteSpace=wrap;html=1;direction=east;" vertex="1" parent="WIyWlLk6GJQsqaUBKTNV-1">
          <mxGeometry x="380" y="340" width="80" height="70" as="geometry" />
        </mxCell>
        <mxCell id="PKIbUtqsOLjBf_A8yuhs-107" style="edgeStyle=orthogonalEdgeStyle;rounded=0;orthogonalLoop=1;jettySize=auto;html=1;exitX=0.5;exitY=1;exitDx=0;exitDy=0;entryX=0.5;entryY=0;entryDx=0;entryDy=0;" edge="1" parent="WIyWlLk6GJQsqaUBKTNV-1" source="PKIbUtqsOLjBf_A8yuhs-48" target="PKIbUtqsOLjBf_A8yuhs-62">
          <mxGeometry relative="1" as="geometry" />
        </mxCell>
        <mxCell id="PKIbUtqsOLjBf_A8yuhs-48" value="&lt;div&gt;Fetch post editor page&lt;/div&gt;" style="rounded=1;whiteSpace=wrap;html=1;direction=east;" vertex="1" parent="WIyWlLk6GJQsqaUBKTNV-1">
          <mxGeometry x="380" y="440" width="80" height="40" as="geometry" />
        </mxCell>
        <mxCell id="PKIbUtqsOLjBf_A8yuhs-123" style="edgeStyle=orthogonalEdgeStyle;rounded=0;orthogonalLoop=1;jettySize=auto;html=1;exitX=0;exitY=0.5;exitDx=0;exitDy=0;entryX=0.25;entryY=1;entryDx=0;entryDy=0;" edge="1" parent="WIyWlLk6GJQsqaUBKTNV-1" source="PKIbUtqsOLjBf_A8yuhs-50" target="PKIbUtqsOLjBf_A8yuhs-41">
          <mxGeometry relative="1" as="geometry" />
        </mxCell>
        <mxCell id="PKIbUtqsOLjBf_A8yuhs-50" value="Push post to feed" style="rounded=1;whiteSpace=wrap;html=1;direction=east;" vertex="1" parent="WIyWlLk6GJQsqaUBKTNV-1">
          <mxGeometry x="380" y="600" width="80" height="40" as="geometry" />
        </mxCell>
        <mxCell id="PKIbUtqsOLjBf_A8yuhs-111" style="edgeStyle=orthogonalEdgeStyle;rounded=0;orthogonalLoop=1;jettySize=auto;html=1;exitX=0.5;exitY=0;exitDx=0;exitDy=0;entryX=0.5;entryY=1;entryDx=0;entryDy=0;" edge="1" parent="WIyWlLk6GJQsqaUBKTNV-1" source="PKIbUtqsOLjBf_A8yuhs-53" target="PKIbUtqsOLjBf_A8yuhs-57">
          <mxGeometry relative="1" as="geometry" />
        </mxCell>
        <mxCell id="PKIbUtqsOLjBf_A8yuhs-113" style="edgeStyle=orthogonalEdgeStyle;rounded=0;orthogonalLoop=1;jettySize=auto;html=1;exitX=1;exitY=0.5;exitDx=0;exitDy=0;entryX=0;entryY=0.5;entryDx=0;entryDy=0;" edge="1" parent="WIyWlLk6GJQsqaUBKTNV-1" source="PKIbUtqsOLjBf_A8yuhs-53" target="PKIbUtqsOLjBf_A8yuhs-83">
          <mxGeometry relative="1" as="geometry" />
        </mxCell>
        <mxCell id="PKIbUtqsOLjBf_A8yuhs-53" value="End session" style="rhombus;whiteSpace=wrap;html=1;" vertex="1" parent="WIyWlLk6GJQsqaUBKTNV-1">
          <mxGeometry x="200" y="285" width="80" height="70" as="geometry" />
        </mxCell>
        <mxCell id="PKIbUtqsOLjBf_A8yuhs-57" value="End" style="ellipse;whiteSpace=wrap;html=1;aspect=fixed;" vertex="1" parent="WIyWlLk6GJQsqaUBKTNV-1">
          <mxGeometry x="220" y="220" width="40" height="40" as="geometry" />
        </mxCell>
        <mxCell id="PKIbUtqsOLjBf_A8yuhs-108" style="edgeStyle=orthogonalEdgeStyle;rounded=0;orthogonalLoop=1;jettySize=auto;html=1;exitX=0.5;exitY=1;exitDx=0;exitDy=0;entryX=0.5;entryY=0;entryDx=0;entryDy=0;" edge="1" parent="WIyWlLk6GJQsqaUBKTNV-1" source="PKIbUtqsOLjBf_A8yuhs-62" target="PKIbUtqsOLjBf_A8yuhs-50">
          <mxGeometry relative="1" as="geometry" />
        </mxCell>
        <mxCell id="PKIbUtqsOLjBf_A8yuhs-122" style="edgeStyle=orthogonalEdgeStyle;rounded=0;orthogonalLoop=1;jettySize=auto;html=1;exitX=0;exitY=0.5;exitDx=0;exitDy=0;entryX=0.5;entryY=1;entryDx=0;entryDy=0;" edge="1" parent="WIyWlLk6GJQsqaUBKTNV-1" source="PKIbUtqsOLjBf_A8yuhs-62" target="PKIbUtqsOLjBf_A8yuhs-41">
          <mxGeometry relative="1" as="geometry" />
        </mxCell>
        <mxCell id="PKIbUtqsOLjBf_A8yuhs-62" value="Submit post" style="rhombus;whiteSpace=wrap;html=1;direction=east;" vertex="1" parent="WIyWlLk6GJQsqaUBKTNV-1">
          <mxGeometry x="380" y="500" width="80" height="70" as="geometry" />
        </mxCell>
        <mxCell id="PKIbUtqsOLjBf_A8yuhs-63" value="&lt;div&gt;&lt;font face=&quot;Verdana&quot; style=&quot;font-size: 25px;&quot;&gt;Project Flow Diagram&lt;/font&gt;&lt;/div&gt;&lt;div align=&quot;left&quot;&gt;&lt;font size=&quot;1&quot; face=&quot;Verdana&quot;&gt;&lt;span style=&quot;white-space: pre;&quot;&gt;&#x9;&lt;/span&gt;Stephen Harris&lt;/font&gt;&lt;br&gt;&lt;/div&gt;" style="text;html=1;align=center;verticalAlign=middle;whiteSpace=wrap;rounded=0;" vertex="1" parent="WIyWlLk6GJQsqaUBKTNV-1">
          <mxGeometry x="120" y="40" width="320" height="60" as="geometry" />
        </mxCell>
        <mxCell id="PKIbUtqsOLjBf_A8yuhs-76" value="No" style="text;html=1;align=center;verticalAlign=middle;whiteSpace=wrap;rounded=0;" vertex="1" parent="WIyWlLk6GJQsqaUBKTNV-1">
          <mxGeometry x="70" y="230" width="30" height="30" as="geometry" />
        </mxCell>
        <mxCell id="PKIbUtqsOLjBf_A8yuhs-78" value="Yes" style="text;html=1;align=center;verticalAlign=middle;whiteSpace=wrap;rounded=0;" vertex="1" parent="WIyWlLk6GJQsqaUBKTNV-1">
          <mxGeometry x="100" y="260" width="30" height="30" as="geometry" />
        </mxCell>
        <mxCell id="PKIbUtqsOLjBf_A8yuhs-87" value="" style="group" vertex="1" connectable="0" parent="WIyWlLk6GJQsqaUBKTNV-1">
          <mxGeometry x="360" y="140" width="120" height="180" as="geometry" />
        </mxCell>
        <mxCell id="PKIbUtqsOLjBf_A8yuhs-83" value="&lt;div&gt;Post Interaction&lt;/div&gt;&lt;div&gt;&lt;br&gt;&lt;/div&gt;&lt;div&gt;&lt;br&gt;&lt;/div&gt;&lt;div&gt;&lt;br&gt;&lt;/div&gt;&lt;div&gt;&lt;br&gt;&lt;/div&gt;&lt;div&gt;&lt;br&gt;&lt;/div&gt;&lt;div&gt;&lt;br&gt;&lt;/div&gt;&lt;div&gt;&lt;br&gt;&lt;/div&gt;&lt;div&gt;&lt;br&gt;&lt;/div&gt;&lt;div&gt;&lt;br&gt;&lt;/div&gt;&lt;div&gt;&lt;br&gt;&lt;/div&gt;&lt;div&gt;&lt;br&gt;&lt;/div&gt;" style="shape=process;whiteSpace=wrap;html=1;backgroundOutline=1;" vertex="1" parent="PKIbUtqsOLjBf_A8yuhs-87">
          <mxGeometry width="120" height="180" as="geometry" />
        </mxCell>
        <mxCell id="PKIbUtqsOLjBf_A8yuhs-84" value="Like post" style="rounded=1;whiteSpace=wrap;html=1;" vertex="1" parent="PKIbUtqsOLjBf_A8yuhs-87">
          <mxGeometry x="20" y="30" width="80" height="40" as="geometry" />
        </mxCell>
        <mxCell id="PKIbUtqsOLjBf_A8yuhs-85" value="Download file" style="rounded=1;whiteSpace=wrap;html=1;" vertex="1" parent="PKIbUtqsOLjBf_A8yuhs-87">
          <mxGeometry x="20" y="80" width="80" height="40" as="geometry" />
        </mxCell>
        <mxCell id="PKIbUtqsOLjBf_A8yuhs-86" value="&lt;div&gt;Play media&lt;/div&gt;" style="rounded=1;whiteSpace=wrap;html=1;" vertex="1" parent="PKIbUtqsOLjBf_A8yuhs-87">
          <mxGeometry x="20" y="130" width="80" height="40" as="geometry" />
        </mxCell>
        <mxCell id="PKIbUtqsOLjBf_A8yuhs-99" style="edgeStyle=orthogonalEdgeStyle;rounded=0;orthogonalLoop=1;jettySize=auto;html=1;exitX=0.5;exitY=1;exitDx=0;exitDy=0;entryX=0.5;entryY=0;entryDx=0;entryDy=0;" edge="1" parent="WIyWlLk6GJQsqaUBKTNV-1" source="PKIbUtqsOLjBf_A8yuhs-83" target="PKIbUtqsOLjBf_A8yuhs-43">
          <mxGeometry relative="1" as="geometry" />
        </mxCell>
        <mxCell id="PKIbUtqsOLjBf_A8yuhs-114" value="No" style="text;html=1;align=center;verticalAlign=middle;whiteSpace=wrap;rounded=0;" vertex="1" parent="WIyWlLk6GJQsqaUBKTNV-1">
          <mxGeometry x="270" y="290" width="30" height="30" as="geometry" />
        </mxCell>
        <mxCell id="PKIbUtqsOLjBf_A8yuhs-116" value="Yes" style="text;html=1;align=center;verticalAlign=middle;whiteSpace=wrap;rounded=0;" vertex="1" parent="WIyWlLk6GJQsqaUBKTNV-1">
          <mxGeometry x="240" y="260" width="30" height="30" as="geometry" />
        </mxCell>
        <mxCell id="PKIbUtqsOLjBf_A8yuhs-117" value="Yes" style="text;html=1;align=center;verticalAlign=middle;whiteSpace=wrap;rounded=0;" vertex="1" parent="WIyWlLk6GJQsqaUBKTNV-1">
          <mxGeometry x="390" y="400" width="30" height="30" as="geometry" />
        </mxCell>
        <mxCell id="PKIbUtqsOLjBf_A8yuhs-118" value="No" style="text;html=1;align=center;verticalAlign=middle;whiteSpace=wrap;rounded=0;" vertex="1" parent="WIyWlLk6GJQsqaUBKTNV-1">
          <mxGeometry x="354" y="370" width="30" height="30" as="geometry" />
        </mxCell>
        <mxCell id="PKIbUtqsOLjBf_A8yuhs-119" value="No" style="text;html=1;align=center;verticalAlign=middle;whiteSpace=wrap;rounded=0;" vertex="1" parent="WIyWlLk6GJQsqaUBKTNV-1">
          <mxGeometry x="354" y="540" width="30" height="30" as="geometry" />
        </mxCell>
        <mxCell id="PKIbUtqsOLjBf_A8yuhs-120" value="Yes" style="text;html=1;align=center;verticalAlign=middle;whiteSpace=wrap;rounded=0;" vertex="1" parent="WIyWlLk6GJQsqaUBKTNV-1">
          <mxGeometry x="390" y="560" width="30" height="30" as="geometry" />
        </mxCell>
        <mxCell id="PKIbUtqsOLjBf_A8yuhs-125" style="edgeStyle=orthogonalEdgeStyle;rounded=0;orthogonalLoop=1;jettySize=auto;html=1;exitX=0;exitY=0.5;exitDx=0;exitDy=0;entryX=1;entryY=0.5;entryDx=0;entryDy=0;" edge="1" parent="WIyWlLk6GJQsqaUBKTNV-1" source="PKIbUtqsOLjBf_A8yuhs-124" target="PKIbUtqsOLjBf_A8yuhs-2">
          <mxGeometry relative="1" as="geometry" />
        </mxCell>
        <mxCell id="PKIbUtqsOLjBf_A8yuhs-124" value="Start" style="ellipse;whiteSpace=wrap;html=1;aspect=fixed;" vertex="1" parent="WIyWlLk6GJQsqaUBKTNV-1">
          <mxGeometry x="200" y="130" width="40" height="40" as="geometry" />
        </mxCell>
      </root>
    </mxGraphModel>
  </diagram>
</mxfile>
